<?xml version="1.0" encoding="UTF-8"?>
<svg xmlns="http://www.w3.org/2000/svg" xmlns:xlink="http://www.w3.org/1999/xlink" viewBox="0 0 22 22" width="22px" height="22px">
<g id="surface57237291">
<path style=" stroke:none;fill-rule:nonzero;fill:rgb(87.843138%,87.843138%,87.843138%);fill-opacity:1;" d="M 11 0 C 4.925781 0 0 4.925781 0 11 C 0 17.074219 4.925781 22 11 22 C 17.074219 22 22 17.074219 22 11 C 22 4.925781 17.074219 0 11 0 Z M 11 0 "/>
<path style=" stroke:none;fill-rule:nonzero;fill:rgb(72.156864%,72.156864%,72.156864%);fill-opacity:1;" d="M 15.363281 9.3125 C 15.363281 11.722656 13.410156 13.675781 11 13.675781 C 8.589844 13.675781 6.636719 11.722656 6.636719 9.3125 C 6.636719 6.902344 8.589844 4.949219 11 4.949219 C 12.15625 4.949219 13.265625 5.410156 14.085938 6.226562 C 14.902344 7.046875 15.363281 8.15625 15.363281 9.3125 "/>
<path style=" stroke:none;fill-rule:nonzero;fill:rgb(72.156864%,72.156864%,72.156864%);fill-opacity:1;" d="M 11 15.546875 C 8.113281 15.527344 5.375 16.84375 3.585938 19.109375 C 7.777344 22.964844 14.222656 22.964844 18.414062 19.109375 C 16.625 16.84375 13.886719 15.527344 11 15.546875 Z M 11 15.546875 "/>
</g>
</svg>
